<svg xmlns="http://www.w3.org/2000/svg" viewBox="0 0 24 24" fill="white">
  <circle cx="12" cy="12" r="3"/>
  <path d="M10.3 2.1l-.6 1.8a7 7 0 00-1.6.9L6.3 4.3a10 10 0 00-2 2l.5 1.8a7 7 0 00-.9 1.6L2.1 10.3A10 10 0 002 12c0 .7.1 1.4.1 2l1.8.6a7 7 0 00.9 1.6l-.5 1.8a10 10 0 002 2l1.8-.5a7 7 0 001.6.9l.6 1.8c.6.1 1.3.1 2 .1s1.4 0 2-.1l.6-1.8a7 7 0 001.6-.9l1.8.5a10 10 0 002-2l-.5-1.8a7 7 0 00.9-1.6l1.8-.6c.1-.6.1-1.3.1-2s0-1.4-.1-2l-1.8-.6a7 7 0 00-.9-1.6l.5-1.8a10 10 0 00-2-2l-1.8.5a7 7 0 00-1.6-.9L13.7 2.1C13.2 2 12.6 2 12 2s-1.2 0-1.7.1z" fill-opacity="0.8"/>
</svg>
